<svg width="588" height="263" viewBox="0 0 588 263" fill="none" xmlns="http://www.w3.org/2000/svg">
<path fill-rule="evenodd" clip-rule="evenodd" d="M0.098877 0.0473633L1.4237 0.555194C7.27685 2.79883 15.6621 6.09627 23.553 9.19933L23.5531 9.19936L23.5534 9.19946L23.5544 9.19989L23.5682 9.20532C25.0781 9.79905 26.5697 10.3856 28.022 10.9563C32.5463 12.7342 36.6884 14.3578 39.8093 15.5636C41.3699 16.1666 42.6736 16.6645 43.6414 17.0247C44.6269 17.3915 45.2275 17.6014 45.4114 17.6461C45.6127 17.695 45.8533 17.8023 45.9964 18.0418C46.1461 18.2924 46.1139 18.5586 46.0437 18.7542C45.9145 19.114 45.574 19.4832 45.1733 19.83C44.3354 20.5553 42.9156 21.4464 41.107 22.3246C37.5852 24.0345 32.4847 25.7457 27.0722 26.0903C27.0726 26.111 27.0728 26.1317 27.0728 26.1523C27.0728 26.1723 27.0727 26.1924 27.0726 26.2125C27.1181 26.2211 27.1631 26.2362 27.2065 26.2582C41.001 33.275 60.7052 37.4108 79.7746 39.7217C98.8316 42.031 117.198 42.5114 128.28 42.2446L128.292 42.2444H541.799C557.799 42.2444 569.247 44.9179 576.685 51.6449C584.137 58.3837 587.449 69.0824 587.449 84.8341V261.965C587.449 262.241 587.225 262.465 586.949 262.465C586.673 262.465 586.449 262.241 586.449 261.965V84.8341C586.449 69.1898 583.155 58.8437 576.015 52.3866C568.862 45.9178 557.735 43.2444 541.799 43.2444H128.298C117.171 43.512 98.7599 43.0297 79.6543 40.7144C60.6781 38.4149 40.9605 34.301 27.0188 27.284C26.7552 30.1615 25.5567 33.4982 24.1356 36.5618C22.5166 40.0522 20.575 43.2577 19.2764 45.1492L18.751 45.9146L18.4011 45.0546L0.781595 1.74517L0.161862 0.221842L0.225425 0.264781L0.098877 0.0473633ZM40.6702 21.425C37.2216 23.0994 32.2189 24.7727 26.9378 25.0968C26.804 24.5445 26.5757 23.9699 26.2761 23.3827C25.7773 22.4052 25.0628 21.3585 24.1927 20.2723C22.4526 18.0998 20.0546 15.7259 17.4068 13.3738C12.7907 9.27312 7.37516 5.20365 3.25744 2.33244C8.9031 4.51289 16.2342 7.39578 23.1858 10.1295L23.1861 10.1296L23.187 10.1299C24.7019 10.7257 26.1988 11.3143 27.6563 11.887C32.1804 13.6648 36.325 15.2894 39.4489 16.4964C41.0107 17.0998 42.3189 17.5995 43.2926 17.9619C44.0866 18.2574 44.6836 18.4716 45.0101 18.5714C44.9216 18.6904 44.7671 18.8591 44.5189 19.0739C43.7738 19.7188 42.4405 20.5654 40.6702 21.425ZM16.7427 14.1214C12.443 10.3018 7.43524 6.50253 3.45094 3.68981C5.85499 7.49618 9.15932 12.1905 12.7671 16.2212C15.07 18.794 17.4828 21.0809 19.8512 22.6947C21.983 24.1472 24.0335 25.0234 25.9085 25.1172C25.7942 24.7244 25.6201 24.2973 25.3854 23.8373C24.9278 22.9406 24.2571 21.9522 23.4123 20.8974C21.7226 18.788 19.3715 16.4567 16.7427 14.1214ZM12.022 16.8881C8.72013 13.1992 5.67641 8.97113 3.32979 5.35508L18.9726 43.8057C20.21 41.9147 21.8407 39.1328 23.2285 36.141C24.8286 32.6915 26.0728 29.0319 26.0728 26.1523L26.0726 26.1237C23.8685 26.0748 21.5596 25.0688 19.2882 23.5211C16.8273 21.8444 14.3535 19.4929 12.022 16.8881Z" fill="#D9D9D9"/>
</svg>
