<svg width="273" height="135" viewBox="0 0 273 135" fill="none" xmlns="http://www.w3.org/2000/svg">
<path fill-rule="evenodd" clip-rule="evenodd" d="M0.0923272 0.0620117L0.547988 0.400011L1.33965 0.73323C4.05023 1.87414 7.93307 3.55078 11.5855 5.12791L11.5878 5.12891L11.5912 5.13037C12.2903 5.43228 12.9811 5.73053 13.6534 6.02067C15.7476 6.92431 17.6641 7.7492 19.1078 8.36167C19.8298 8.66799 20.4319 8.92047 20.8781 9.10285C21.1014 9.19413 21.2837 9.26701 21.4215 9.32002C21.4904 9.34655 21.5463 9.36737 21.5896 9.38272C21.6112 9.39038 21.6285 9.39625 21.6418 9.40058L21.6574 9.40549L21.6617 9.40677C21.6627 9.40707 21.6632 9.40719 21.6632 9.40718C21.8024 9.44429 21.9898 9.53287 22.1002 9.73586C22.2108 9.93903 22.1825 10.1432 22.139 10.276C22.0598 10.5185 21.8627 10.7421 21.6717 10.9236C21.2599 11.315 20.5795 11.7813 19.7307 12.2338C18.2342 13.0317 16.1292 13.8319 13.8509 14.1101C20.1572 17.4693 28.9678 19.4804 37.533 20.6202C46.3374 21.7917 54.823 22.0353 59.9387 21.9V21.8998H59.9519H251.351C258.782 21.8998 264.175 23.2617 267.695 26.7573C271.216 30.2531 272.749 35.7703 272.749 43.7922V133.82C272.749 134.097 272.525 134.32 272.249 134.32C271.973 134.32 271.749 134.097 271.749 133.82V43.7922C271.749 35.8569 270.224 30.6779 266.991 27.4668C263.757 24.2556 258.701 22.8998 251.351 22.8998H59.9585C54.7942 23.036 46.2589 22.7901 37.4011 21.6114C28.7707 20.463 19.7776 18.4222 13.3017 14.9504C13.1204 16.3543 12.5952 17.9167 11.9918 19.3451C11.237 21.1318 10.3323 22.7722 9.72511 23.7433L9.18576 24.606L8.8323 23.652L0.676822 1.63962L0.353808 0.767772L0.0471191 0.18919L0.156504 0.235232L0.0923272 0.0620117ZM9.40613 22.3224L3.26491 5.74671C4.07182 6.97822 4.97228 8.24311 5.91901 9.40454C7.00451 10.7362 8.16482 11.9493 9.32816 12.8197C10.3104 13.5546 11.3428 14.0813 12.365 14.1816C12.3128 15.5658 11.7716 17.2965 11.0706 18.956C10.5367 20.2198 9.92435 21.4097 9.40613 22.3224ZM9.92723 12.019C10.7397 12.6269 11.4983 13.0104 12.1837 13.1449C12.1511 13.0618 12.1141 12.9752 12.0723 12.8853C11.8691 12.4481 11.5681 11.9597 11.183 11.4317C10.4126 10.3756 9.33558 9.20198 8.12373 8.0199C6.52235 6.45785 4.70648 4.90131 3.09857 3.60954C4.11189 5.27647 5.35853 7.13424 6.69412 8.77271C7.75368 10.0726 8.85525 11.217 9.92723 12.019ZM12.9791 12.4639C13.0886 12.6995 13.1801 12.935 13.2468 13.1676C15.5569 12.9706 17.7393 12.1623 19.2603 11.3514C20.0534 10.9286 20.6402 10.519 20.965 10.2155C20.83 10.1627 20.6731 10.0993 20.4998 10.0285C20.0474 9.84361 19.4405 9.58909 18.7172 9.28225C17.2704 8.66842 15.3512 7.84239 13.2573 6.93884C12.5825 6.64767 11.8895 6.34845 11.1883 6.04566L11.188 6.04552L11.1876 6.04537C8.65545 4.95196 6.01529 3.81192 3.7323 2.83593C5.35906 4.14313 7.19646 5.71845 8.82199 7.30406C10.0525 8.50438 11.1737 9.72219 11.9909 10.8424C12.3995 11.4027 12.7396 11.9486 12.9791 12.4639Z" fill="#D9D9D9"/>
</svg>
