<svg width="1104" height="151" viewBox="0 0 1104 151" fill="none" xmlns="http://www.w3.org/2000/svg">
<path fill-rule="evenodd" clip-rule="evenodd" d="M568.921 0.823947L568.967 0.326127L568.519 0.284137V0.277312L568.5 0.277312V0.277308H568.446L568.115 0.246252L568.114 0.236391L568.06 0.241067L567.972 0.232849L567.97 0.248722L567.637 0.277305L567.519 0.277304V0.277308H567.5V0.289091L567.118 0.321886L567.161 0.820056L567.494 4.71026C566.332 9.03876 561.087 16.2211 548.9 23.4518C536.659 30.7149 517.471 37.9891 488.578 42.436C466.767 45.7931 428.127 50.3792 382.243 55.825L382.242 55.8251L382.241 55.8253L382.235 55.826C352.045 59.4091 318.721 63.3644 284.991 67.5866C200.02 78.223 112.469 90.5544 66.1281 102.893C45.0373 108.508 28.1172 117.084 16.7507 125.568C11.0691 129.809 6.75984 134.038 4.01303 137.878C1.28297 141.694 0.027406 145.224 0.659534 148.025L0.769619 148.513L1.74508 148.292L1.635 147.805C1.10028 145.436 2.14095 142.214 4.82634 138.46C7.49498 134.729 11.7204 130.571 17.3489 126.369C28.6024 117.969 45.4039 109.445 66.3853 103.859C112.647 91.5418 200.124 79.2177 285.115 68.5788C318.822 64.3594 352.138 60.4052 382.326 56.8222L382.327 56.8221C428.231 51.3738 466.904 46.7837 488.731 43.4244C517.714 38.9635 537.032 31.6565 549.411 24.3119C559.697 18.2089 565.233 12.0537 567.5 7.4544V10.5076C567.499 10.8084 567.499 11.1113 567.5 11.4162V34.0517C566.388 40.1918 559.233 54.7172 539.331 63.1831C528.356 67.8519 509.689 74.4466 490.318 81.2896L490.318 81.2898L490.275 81.3048C487.523 82.2771 484.757 83.2544 481.996 84.2319C459.817 92.0855 438.01 99.9549 427.091 105.314C416.169 110.676 405.309 117.772 396.544 125.505C387.79 133.229 381.077 141.632 378.524 149.617L378.371 150.093L379.324 150.398L379.476 149.922C381.948 142.19 388.503 133.934 397.206 126.255C405.897 118.587 416.681 111.538 427.531 106.212C438.386 100.885 460.125 93.0374 482.33 85.1745C485.098 84.1944 487.873 83.214 490.635 82.2384L490.651 82.2328C510.013 75.3927 528.716 68.7856 539.723 64.1033C559.972 55.4895 567.345 40.6418 568.492 34.1837L568.5 34.1403V34.0962V28.6688C568.71 30.5345 568.956 32.4017 569.239 34.2521C570.17 40.3393 571.509 46.2594 573.332 51.3597C575.152 56.4518 577.469 60.7687 580.384 63.6086C583.971 67.104 590.215 71.5207 598.171 76.3765C606.136 81.238 615.848 86.5571 626.392 91.8553C647.479 102.451 671.922 112.974 692.433 119.592C712.922 126.202 725.075 130.842 732.303 135.237C735.908 137.429 738.259 139.543 739.807 141.786C741.351 144.023 742.118 146.421 742.505 149.22L742.573 149.715L743.564 149.578L743.495 149.083C743.094 146.175 742.286 143.617 740.63 141.218C738.977 138.823 736.504 136.62 732.823 134.382C725.478 129.917 713.212 125.245 692.74 118.64C672.291 112.042 647.896 101.541 626.841 90.9617C616.314 85.6725 606.628 80.3667 598.692 75.523C590.746 70.6737 584.584 66.3051 581.082 62.8924C578.325 60.2059 576.071 56.0528 574.273 51.0231C572.478 46.0015 571.153 40.1478 570.228 34.1008C569.214 27.4776 568.684 20.6394 568.54 14.4339C569.058 16.6003 569.828 18.8541 570.97 21.1467C574.924 29.0814 583.29 37.4107 600.837 44.3363C622.739 52.9811 664.291 60.3489 710.955 66.7215C750.298 72.0944 793.325 76.7657 831.368 80.896L831.369 80.896L831.369 80.8961C838.468 81.6668 845.393 82.4186 852.088 83.1527C937.256 92.4902 1042.68 108.223 1068.2 114.742C1096.07 121.859 1101.79 142.23 1102.5 147.365L1102.57 147.86L1103.56 147.723L1103.5 147.228C1102.75 141.829 1096.83 121.021 1068.45 113.773C1042.84 107.234 937.356 91.4952 852.197 82.1586C845.5 81.4243 838.573 80.6723 831.473 79.9015C793.429 75.7712 750.419 71.1016 711.091 65.7307C664.402 59.3548 622.974 51.9988 601.204 43.4061C583.812 36.5416 575.677 28.3516 571.865 20.7007C569.418 15.79 568.733 11.0721 568.557 6.98533C568.624 4.75058 568.747 2.67804 568.921 0.823947Z" fill="#333333"/>
</svg>
