<svg width="149" height="50" viewBox="0 0 149 50" fill="none" xmlns="http://www.w3.org/2000/svg">
<path fill-rule="evenodd" clip-rule="evenodd" d="M61.6633 27.9353V29.4543L61.4573 29.7118H57.8013V28.2957C56.6856 28.9823 55.6901 29.3256 54.8147 29.3256C53.8535 29.3256 53.0983 29.0596 52.549 28.5275C52.0169 27.9954 51.7509 27.2916 51.7509 26.4162C51.7509 25.5408 51.974 24.6397 52.4203 23.7128L57.8013 22.2195V20.6232H59.5778V27.6778H61.4573L61.6633 27.9353ZM53.8621 19.7221L52.549 18.1773L54.1968 16.787L55.3811 18.203L57.0289 16.8127L58.342 18.3575L56.6685 19.7221L55.5099 18.3318L53.8621 19.7221ZM55.1237 27.3431C55.9991 27.3431 56.883 27.12 57.7756 26.6737V23.8673L53.5531 25.0259C53.4673 25.3349 53.4244 25.6524 53.4244 25.9785C53.4244 26.8883 53.9908 27.3431 55.1237 27.3431Z" fill="#EDEDED"/>
<path d="M61.4573 27.6777H64.7014C64.8902 27.6777 64.9846 27.7721 64.9846 27.9609V29.4285C64.9846 29.6173 64.8902 29.7117 64.7014 29.7117H61.4573C61.2685 29.7117 61.1741 29.6173 61.1741 29.4285V27.9609C61.1741 27.7721 61.2685 27.6777 61.4573 27.6777Z" fill="#EDEDED"/>
<path d="M64.7014 27.6777H67.9454C68.1171 27.6777 68.2029 27.7721 68.2029 27.9609V29.4285C68.2029 29.6173 68.1171 29.7117 67.9454 29.7117H64.7014C64.5126 29.7117 64.4182 29.6173 64.4182 29.4285V27.9609C64.4182 27.7721 64.5126 27.6777 64.7014 27.6777Z" fill="#EDEDED"/>
<path d="M67.9455 27.6777H71.1638C71.3526 27.6777 71.447 27.7721 71.447 27.9609V29.4285C71.447 29.6173 71.3526 29.7117 71.1638 29.7117H67.9455C67.7566 29.7117 67.6622 29.6173 67.6622 29.4285V27.9609C67.6622 27.7721 67.7566 27.6777 67.9455 27.6777Z" fill="#EDEDED"/>
<path d="M71.1638 27.6777H74.4078C74.5967 27.6777 74.6911 27.7721 74.6911 27.9609V29.4285C74.6911 29.6173 74.5967 29.7117 74.4078 29.7117H71.1638C70.975 29.7117 70.8806 29.6173 70.8806 29.4285V27.9609C70.8806 27.7721 70.975 27.6777 71.1638 27.6777Z" fill="#EDEDED"/>
<path d="M74.4078 27.6777H77.6519C77.8236 27.6777 77.9094 27.7721 77.9094 27.9609V29.4285C77.9094 29.6173 77.8236 29.7117 77.6519 29.7117H74.4078C74.219 29.7117 74.1246 29.6173 74.1246 29.4285V27.9609C74.1246 27.7721 74.219 27.6777 74.4078 27.6777Z" fill="#EDEDED"/>
<path d="M77.6519 27.6777H80.8703C81.0591 27.6777 81.1535 27.7721 81.1535 27.9609V29.4285C81.1535 29.6173 81.0591 29.7117 80.8703 29.7117H77.6519C77.4631 29.7117 77.3687 29.6173 77.3687 29.4285V27.9609C77.3687 27.7721 77.4631 27.6777 77.6519 27.6777Z" fill="#EDEDED"/>
<path d="M80.8702 27.6777H84.1143C84.3031 27.6777 84.3975 27.7721 84.3975 27.9609V29.4285C84.3975 29.6173 84.3031 29.7117 84.1143 29.7117H80.8702C80.6814 29.7117 80.587 29.6173 80.587 29.4285V27.9609C80.587 27.7721 80.6814 27.6777 80.8702 27.6777Z" fill="#EDEDED"/>
<path d="M84.1143 27.6777H87.3583C87.53 27.6777 87.6158 27.7721 87.6158 27.9609V29.4285C87.6158 29.6173 87.53 29.7117 87.3583 29.7117H84.1143C83.9255 29.7117 83.8311 29.6173 83.8311 29.4285V27.9609C83.8311 27.7721 83.9255 27.6777 84.1143 27.6777Z" fill="#EDEDED"/>
<path d="M87.3584 27.6777H90.5767C90.7655 27.6777 90.86 27.7721 90.86 27.9609V29.4285C90.86 29.6173 90.7655 29.7117 90.5767 29.7117H87.3584C87.1696 29.7117 87.0752 29.6173 87.0752 29.4285V27.9609C87.0752 27.7721 87.1696 27.6777 87.3584 27.6777Z" fill="#EDEDED"/>
<path d="M90.5768 27.6777H93.8209C94.0097 27.6777 94.1041 27.7721 94.1041 27.9609V29.4285C94.1041 29.6173 94.0097 29.7117 93.8209 29.7117H90.5768C90.388 29.7117 90.2936 29.6173 90.2936 29.4285V27.9609C90.2936 27.7721 90.388 27.6777 90.5768 27.6777Z" fill="#EDEDED"/>
<path d="M93.8208 27.6777H97.0648C97.2365 27.6777 97.3223 27.7721 97.3223 27.9609V29.4285C97.3223 29.6173 97.2365 29.7117 97.0648 29.7117H93.8208C93.632 29.7117 93.5375 29.6173 93.5375 29.4285V27.9609C93.5375 27.7721 93.632 27.6777 93.8208 27.6777Z" fill="#EDEDED"/>
<path fill-rule="evenodd" clip-rule="evenodd" d="M112.693 27.9097V29.5318L112.487 29.712H112.23C111.389 29.712 110.608 29.343 109.887 28.6049L109.14 29.712H97.0649L96.8589 29.506V27.8325L97.0649 27.678H99.2276V22.3227H100.978V24.2795C103.519 22.2712 105.39 21.2671 106.591 21.2671C107.364 21.2671 108.05 21.5675 108.651 22.1682C109.235 22.7518 109.672 23.4813 109.964 24.3567C110.239 25.2321 110.402 26.1847 110.453 27.2146C110.899 27.5235 111.517 27.678 112.307 27.678H112.487L112.693 27.9097ZM101.004 27.7038H108.78C108.711 26.8799 108.591 26.1589 108.419 25.541C108.23 24.9059 107.947 24.3824 107.57 23.9705C107.192 23.5585 106.729 23.3526 106.179 23.3526C105.115 23.3526 103.39 24.2451 101.004 26.0302V27.7038Z" fill="#EDEDED"/>
<path fill-rule="evenodd" clip-rule="evenodd" d="M117.791 19.413C118.563 19.413 119.241 19.722 119.825 20.3399C120.408 20.9579 120.846 21.7303 121.138 22.6571C121.413 23.5669 121.55 24.528 121.55 25.5407C121.55 27.0512 121.404 28.4415 121.112 29.7117H112.487L112.281 29.4285V27.9867L112.487 27.6777H119.851C119.868 27.3173 119.876 27.0169 119.876 26.7766C117.37 26.7938 115.379 26.1587 113.903 24.8713C114.075 23.4124 114.521 22.1336 115.242 21.0351C115.963 19.9537 116.813 19.413 117.791 19.413ZM115.886 17.9455L114.573 16.4007L116.22 15.0104L117.405 16.4264L119.052 15.0361L120.366 16.5809L118.692 17.9455L117.533 16.5552L115.886 17.9455ZM115.551 24.0474C116.495 24.7684 117.92 25.1031 119.825 25.0516C119.722 24.056 119.473 23.215 119.078 22.5284C118.666 21.8418 118.169 21.4985 117.585 21.4985C117.156 21.4985 116.752 21.7474 116.375 22.2452C115.98 22.7258 115.705 23.3265 115.551 24.0474Z" fill="#EDEDED"/>
<path d="M128.708 27.935V29.5055L128.502 29.7115H124.588V14.7527H126.39V27.6775H128.502L128.708 27.935Z" fill="#EDEDED"/>
<path d="M136.045 27.9094V29.5315L135.839 29.7117H135.453C134.664 29.7117 133.857 29.3169 133.033 28.5274L132.312 29.7117H128.502L128.218 29.4285V27.9094L128.502 27.6777H131.849V22.3739H133.651V27.2143C134.114 27.5232 134.741 27.6777 135.531 27.6777H135.839L136.045 27.9094ZM132.518 20.3657L131.205 18.8209L132.879 17.4305L134.192 19.0011L132.518 20.3657Z" fill="#EDEDED"/>
<path fill-rule="evenodd" clip-rule="evenodd" d="M142.611 21.5243C143.486 21.5243 144.198 21.9277 144.748 22.7344C145.297 23.524 145.572 24.5452 145.572 25.7982C145.572 26.8453 145.323 27.8236 144.825 28.7334L143.435 30.0722L138.877 28.0125C138.465 28.6304 138.045 29.0681 137.616 29.3255C137.187 29.583 136.646 29.7117 135.994 29.7117H135.839L135.633 29.4285V28.0125L135.839 27.6777H136.148C136.629 27.6777 137.032 27.5061 137.358 27.1628C137.684 26.8024 138.096 26.1501 138.594 25.2061C139.212 24.0389 139.839 23.1377 140.474 22.5027C141.109 21.8504 141.821 21.5243 142.611 21.5243ZM139.753 26.4677L143.435 28.1669C143.726 27.4975 143.872 26.8195 143.872 26.1329C143.872 25.3434 143.726 24.7169 143.435 24.2534C143.143 23.79 142.748 23.5583 142.25 23.5583C141.855 23.5583 141.478 23.7728 141.117 24.202C140.774 24.6139 140.371 25.2747 139.907 26.1844L139.753 26.4677Z" fill="#EDEDED"/>
<path d="M13.0278 29.0165L9.83522 16.8383H8.16169V49.7425H0V0H13.62L20.9063 26.1586L13.0278 29.0165Z" fill="#EDEDED"/>
<path d="M29.0422 50.0002H18.7951L13.929 32.5955L21.7817 29.7376L23.7642 36.9209H24.3821C27.7292 24.7428 31.2307 12.4359 34.6035 0.25769H42.173L29.0422 50.0002Z" fill="#00A068"/>
<path d="M45.1339 16.9672L45.2369 25.3863V50.0001L35.9423 49.9744L45.1339 16.9672Z" fill="#EDEDED"/>
<path fill-rule="evenodd" clip-rule="evenodd" d="M57.1318 33.7024C59.655 33.7024 61.689 35.7364 61.689 38.2853V44.8507C61.689 47.3481 59.655 49.4079 57.1318 49.4079H55.3296C52.8321 49.4079 50.7724 47.3481 50.7724 44.8507V38.2853C50.7724 35.7364 52.8321 33.7024 55.3296 33.7024H57.1318ZM58.8826 38.414C58.8826 37.3327 58.1874 36.4315 57.1318 36.4315H55.381C54.2997 36.4315 53.6045 37.3327 53.6045 38.414V44.6705C53.6045 45.7776 54.2997 46.6787 55.381 46.6787H57.1318C58.1874 46.6787 58.8826 45.7776 58.8826 44.6705V38.414Z" fill="#EDEDED"/>
<path d="M68.2802 39.1347V49.4076H65.4738V33.7021H68.2802L73.6098 44.078V33.7021H76.3647V49.4076H73.6098L68.2802 39.1347Z" fill="#EDEDED"/>
<path fill-rule="evenodd" clip-rule="evenodd" d="M87.101 47.0132H82.8786L82.3121 49.4076H79.5057L83.548 33.7021H86.5603L90.4223 49.4076H87.6674L87.101 47.0132ZM83.4192 44.696H86.5603L85.0928 38.2593H84.9383L83.4192 44.696Z" fill="#EDEDED"/>
<path fill-rule="evenodd" clip-rule="evenodd" d="M100.206 33.7021C102.729 33.7021 104.737 35.7361 104.737 38.285V44.8504C104.737 45.5971 104.557 46.2923 104.248 46.8844L106.256 49.4076H103.553L102.858 48.5322C102.111 49.0729 101.184 49.4076 100.206 49.4076H98.378C95.8806 49.4076 93.8209 47.3479 93.8209 44.8504V38.285C93.8209 35.7361 95.8806 33.7021 98.378 33.7021H100.206ZM101.931 43.9493V38.4138C101.931 37.3324 101.236 36.4313 100.206 36.4313H98.4295C97.3481 36.4313 96.6787 37.3324 96.6787 38.4138V44.6702C96.6787 45.7773 97.3481 46.6785 98.4295 46.6785H100.206C100.566 46.6785 100.875 46.5755 101.133 46.3695L98.0176 42.4818H100.798L101.931 43.9493Z" fill="#00A068"/>
<path fill-rule="evenodd" clip-rule="evenodd" d="M116.169 47.0132H111.946L111.354 49.4076H108.574L112.616 33.7021H115.602L119.49 49.4076H116.71L116.169 47.0132ZM112.513 44.696H115.654L114.186 38.2593H114.032L112.513 44.696Z" fill="#EDEDED"/>
<path d="M130.021 39.6496C132.647 39.6496 134.578 41.7351 134.578 44.6187C134.578 47.3479 132.827 49.4076 130.252 49.4076H123.095V46.4982H129.428C130.69 46.4982 131.72 45.9061 131.72 44.6187C131.72 43.4344 130.819 42.7135 129.66 42.7135H127.781C124.64 42.7135 122.606 41.4004 122.606 38.1306C122.606 35.7876 124.228 33.7021 126.699 33.7021H133.187V36.766H127.884C126.699 36.766 125.747 36.972 125.747 38.285C125.747 39.0574 126.287 39.6496 127.188 39.6496H130.021Z" fill="#EDEDED"/>
<path fill-rule="evenodd" clip-rule="evenodd" d="M145.082 47.0132H140.86L140.294 49.4076H137.487L141.529 33.7021H144.542L148.404 49.4076H145.649L145.082 47.0132ZM141.401 44.696H144.542L143.074 38.2593H142.945L141.401 44.696Z" fill="#EDEDED"/>
</svg>
