<?xml version="1.0" standalone="no"?>
<!DOCTYPE svg PUBLIC "-//W3C//DTD SVG 20010904//EN"
 "http://www.w3.org/TR/2001/REC-SVG-20010904/DTD/svg10.dtd">
<svg version="1.0" xmlns="http://www.w3.org/2000/svg"
 width="800.000000pt" height="800.000000pt" viewBox="0 0 800.000000 800.000000"
 preserveAspectRatio="xMidYMid meet">
<metadata>
Created by potrace 1.14, written by Peter Selinger 2001-2017
</metadata>
<g transform="translate(0.000000,800.000000) scale(0.100000,-0.100000)"
fill="#000000" stroke="none">
<path d="M320 4027 c0 -2879 3 -3976 11 -3984 6 -6 22 -8 38 -4 14 4 35 6 46
5 11 -1 31 -3 45 -4 14 -1 30 -1 35 0 6 1 111 1 235 0 124 0 230 -1 235 -1 6
1 27 2 48 4 21 1 40 0 43 -4 2 -4 17 -4 32 0 15 4 36 6 47 5 37 -4 80 -4 118
-1 21 1 40 0 43 -4 2 -4 17 -4 32 0 15 4 36 6 47 5 11 -1 31 -3 45 -4 14 -1
30 -1 35 0 6 1 46 2 90 2 l80 0 0 2629 c0 1446 2 2630 5 2630 15 3 269 5 266
2 -2 -2 5 -32 15 -66 11 -34 21 -73 24 -87 4 -20 17 -68 39 -145 1 -5 6 -28
11 -50 4 -22 11 -47 15 -55 5 -8 11 -28 14 -45 3 -16 15 -66 27 -110 11 -44
22 -87 24 -95 2 -8 13 -50 24 -92 12 -43 30 -113 42 -155 20 -74 24 -89 33
-130 2 -10 11 -45 20 -78 9 -33 19 -68 21 -78 2 -10 7 -27 10 -37 3 -10 8 -27
10 -37 5 -21 84 -324 115 -438 12 -44 24 -93 26 -108 3 -16 12 -46 19 -67 7
-21 11 -40 9 -43 -2 -2 2 -9 10 -16 14 -12 18 -11 103 25 17 8 34 14 37 14 4
0 82 27 174 61 92 34 172 62 177 63 6 2 24 9 40 15 17 7 35 14 40 15 6 2 24 9
40 15 17 7 37 14 45 16 8 2 33 10 55 19 71 27 290 108 300 110 12 3 26 8 125
46 41 16 87 32 101 35 l26 7 -14 51 c-8 29 -17 59 -20 67 -3 8 -7 20 -8 25 -2
6 -13 46 -25 90 -12 44 -23 87 -25 95 -2 8 -19 71 -40 140 -20 69 -38 132 -40
140 -1 8 -15 58 -30 110 -14 52 -28 100 -29 105 -2 6 -6 24 -10 40 -4 17 -10
37 -13 45 -3 8 -8 24 -10 35 -2 11 -11 43 -20 70 -9 28 -18 57 -19 65 -1 8 -8
33 -14 55 -6 22 -14 54 -17 70 -3 17 -9 35 -13 40 -5 6 -10 24 -11 40 -2 17
-6 32 -9 35 -3 3 -18 50 -32 105 -15 55 -34 127 -43 160 -10 33 -18 65 -19 70
-1 6 -10 37 -20 70 -10 33 -19 65 -21 70 -5 25 -20 78 -47 174 -16 58 -32 112
-34 120 -2 9 -12 48 -23 86 -11 39 -40 144 -65 235 -25 91 -50 179 -55 195 -9
27 -67 237 -76 275 -2 8 -8 29 -14 47 -5 17 -7 34 -3 37 3 3 0 6 -6 6 -7 0
-11 3 -10 8 3 7 -18 90 -33 132 -5 14 -11 36 -13 50 -3 14 -14 57 -26 95 -12
39 -23 77 -25 85 -1 8 -11 41 -20 74 -9 32 -19 66 -20 75 -2 9 -4 16 -5 16 -1
0 -3 7 -5 15 -2 8 -31 114 -65 235 -34 121 -63 225 -64 230 -5 19 -27 100 -42
153 l-15 52 -1090 0 -1089 0 0 -3973z"/>
<path d="M5916 7963 c-4 -4 -19 -7 -34 -8 -25 0 -28 -5 -55 -100 -15 -55 -30
-107 -32 -116 -2 -8 -11 -40 -20 -70 -9 -30 -18 -65 -21 -79 -2 -14 -9 -36
-14 -50 -5 -14 -16 -54 -25 -90 -9 -36 -19 -72 -22 -80 -3 -8 -7 -21 -9 -29
-1 -8 -6 -26 -10 -40 -4 -14 -8 -29 -9 -33 -2 -5 -3 -9 -5 -10 -1 -2 -3 -10
-5 -19 -1 -9 -20 -75 -40 -145 -20 -71 -39 -139 -41 -151 -2 -12 -9 -34 -14
-48 -5 -14 -7 -25 -4 -25 4 0 2 -6 -3 -12 -9 -12 -35 -106 -33 -118 1 -3 -4
-18 -11 -35 -6 -16 -22 -70 -36 -120 -13 -49 -26 -97 -28 -105 -2 -8 -9 -31
-14 -50 -30 -110 -155 -555 -172 -610 -10 -36 -21 -74 -24 -85 -4 -20 -33
-127 -42 -155 -2 -8 -5 -16 -5 -17 0 -1 -11 -40 -24 -85 -14 -46 -27 -94 -30
-108 -2 -14 -9 -36 -14 -50 -5 -14 -16 -54 -25 -90 -10 -36 -19 -72 -22 -80
-4 -8 -7 -19 -8 -25 -2 -5 -8 -30 -15 -55 -7 -25 -12 -47 -12 -50 0 -3 -4 -12
-9 -21 -4 -9 -10 -27 -13 -40 -10 -46 -14 -65 -46 -174 -33 -114 -60 -209 -66
-235 -1 -8 -23 -87 -49 -175 -25 -88 -47 -169 -50 -180 -2 -11 -20 -76 -40
-145 -20 -69 -43 -147 -50 -175 -19 -74 -114 -415 -125 -450 -6 -16 -26 -88
-45 -160 -43 -159 -62 -226 -80 -285 -8 -25 -16 -56 -19 -70 -3 -14 -21 -81
-41 -150 -19 -69 -36 -132 -38 -140 -1 -8 -6 -20 -9 -26 -4 -6 -10 -24 -13
-40 -5 -30 -26 -110 -64 -244 -12 -41 -24 -83 -26 -94 -2 -10 -11 -43 -20 -73
l-16 -54 -46 3 c-28 2 -49 9 -54 18 -7 14 -57 192 -64 230 -2 8 -4 15 -5 15
-1 0 -3 7 -5 15 -3 17 -67 248 -90 325 -8 28 -23 84 -34 125 -32 120 -113 412
-116 418 -1 1 -53 -16 -116 -39 -63 -22 -118 -42 -124 -43 -5 -2 -23 -8 -40
-15 -16 -7 -129 -48 -250 -92 -121 -44 -227 -82 -235 -86 -8 -3 -19 -7 -25 -9
-10 -2 -149 -53 -320 -116 -44 -16 -93 -34 -110 -40 -16 -6 -31 -12 -32 -12
-3 -2 40 -164 60 -228 8 -27 13 -48 11 -48 -2 0 1 -12 7 -27 6 -16 12 -35 14
-43 6 -24 64 -232 74 -265 5 -16 28 -100 51 -185 23 -85 46 -164 50 -175 5
-11 11 -31 13 -45 3 -14 13 -50 22 -80 9 -30 17 -62 19 -70 2 -8 12 -42 22
-75 10 -33 19 -64 20 -70 4 -20 76 -281 81 -295 3 -8 7 -22 9 -30 1 -8 8 -31
13 -50 14 -44 91 -320 96 -340 2 -8 4 -15 5 -15 1 0 3 -7 5 -15 1 -8 12 -50
24 -93 13 -43 24 -86 26 -95 6 -28 74 -264 85 -300 6 -18 13 -42 16 -55 2 -12
14 -58 27 -102 l23 -80 821 -3 820 -2 27 102 c15 57 28 110 31 118 13 50 76
288 79 300 2 8 9 35 16 60 7 25 14 53 15 62 2 10 6 22 9 26 3 5 7 19 9 33 3
13 22 87 42 164 20 77 38 147 40 155 2 8 29 110 60 225 57 212 62 230 71 274
3 14 7 28 10 33 3 4 7 16 9 25 1 10 10 45 19 78 9 33 18 67 20 75 36 146 77
298 94 350 3 8 6 22 7 30 1 8 8 35 15 60 6 25 13 52 15 60 2 8 9 35 16 60 7
25 13 50 15 55 1 6 9 37 18 70 9 33 19 71 22 85 3 14 21 81 40 150 30 107 52
191 69 263 2 9 6 20 8 25 3 4 8 23 11 42 3 19 15 67 26 105 12 39 23 77 25 85
2 8 13 53 25 100 12 47 23 92 25 100 2 8 8 30 14 48 5 18 10 34 11 37 0 3 3
10 5 17 4 10 45 171 70 272 2 10 11 42 19 70 8 28 17 62 20 76 3 14 12 50 20
80 30 106 88 324 91 341 2 10 13 52 25 94 12 42 23 84 25 93 1 9 8 35 14 57 6
22 10 42 10 45 0 3 4 17 10 33 6 15 13 38 15 50 2 12 9 42 16 67 7 25 14 52
15 60 2 8 4 15 5 15 1 0 3 7 5 15 2 8 15 58 28 110 14 52 55 210 92 350 36
140 69 262 72 270 3 8 8 23 10 33 1 10 17 71 34 135 17 64 33 124 34 132 2 8
4 15 5 15 1 0 3 7 5 15 1 8 21 85 45 170 23 85 43 164 44 175 1 12 5 25 8 30
4 9 20 65 19 72 0 2 5 17 10 35 6 18 12 41 14 51 2 10 7 27 10 37 3 10 8 29
11 42 9 39 12 53 14 53 1 0 3 7 5 15 1 8 22 87 45 175 24 88 43 168 44 178 0
9 3 17 6 17 3 0 7 8 8 18 2 21 7 43 15 62 5 12 61 229 73 280 1 8 15 58 29
110 15 52 28 102 30 110 1 8 19 76 39 150 21 74 39 142 41 151 2 9 8 34 14 55
15 55 14 77 -4 71 -8 -4 -17 -2 -20 3 -3 5 -18 5 -33 1 -15 -4 -36 -6 -47 -5
-37 4 -80 4 -118 1 -21 -1 -40 0 -43 4 -2 4 -17 4 -32 0 -15 -4 -36 -6 -47 -5
-37 4 -80 4 -118 1 -21 -1 -40 0 -43 4 -2 4 -17 4 -32 0 -15 -4 -36 -6 -47 -5
-37 4 -80 4 -118 1 -21 -1 -40 0 -43 4 -2 4 -17 4 -32 0 -15 -4 -36 -6 -47 -5
-26 3 -75 4 -100 3 -11 -1 -40 -1 -65 0 -25 1 -61 0 -80 -1 -20 -1 -40 1 -46
5 -6 3 -14 3 -18 0z"/>
<path d="M7521 5213 c-11 -50 -41 -152 -58 -203 -3 -8 -7 -24 -9 -35 -2 -11
-29 -108 -59 -215 -31 -107 -58 -204 -60 -215 -1 -11 -3 -20 -4 -20 -3 0 -7
-17 -16 -59 -3 -16 -10 -36 -14 -45 -5 -9 -11 -29 -14 -46 -3 -16 -15 -64 -27
-105 -18 -61 -54 -190 -135 -480 -8 -27 -25 -95 -30 -113 -2 -9 -6 -21 -9 -25
-3 -5 -7 -19 -10 -33 -3 -13 -21 -80 -41 -149 -19 -69 -38 -136 -41 -149 -3
-13 -16 -63 -30 -110 -14 -47 -27 -93 -29 -101 -6 -25 -33 -122 -46 -165 -7
-22 -12 -43 -11 -47 1 -4 -3 -20 -9 -35 -12 -31 -67 -223 -75 -263 -2 -14 -11
-45 -19 -70 -14 -46 -124 -433 -130 -460 -5 -26 -89 -324 -114 -408 -5 -18
-10 -33 -9 -35 0 -1 -6 -22 -13 -47 -7 -25 -13 -48 -15 -52 -1 -5 -2 -9 -3
-10 -2 -2 -4 -14 -7 -28 -2 -14 -14 -56 -26 -95 -12 -38 -22 -75 -24 -81 -4
-21 -66 -249 -71 -264 -3 -8 -7 -19 -8 -25 -4 -15 -124 -449 -152 -545 -13
-47 -26 -93 -29 -102 -2 -10 -6 -26 -8 -35 -3 -10 -23 -81 -44 -158 -22 -77
-42 -149 -44 -160 -3 -19 6 -20 738 -22 l742 -3 -3 2347 c-3 2245 -7 2909 -17
2919 -3 2 -11 -22 -17 -53z"/>
</g>
</svg>
